<svg width="32" height="32" viewBox="0 0 32 32" fill="none" xmlns="http://www.w3.org/2000/svg">
<path d="M30.0794 17.7331V14.2131L25.8899 13.5283C25.6416 12.5363 25.2525 11.6038 24.7392 10.7494L27.1808 7.26974L24.6912 4.78206L21.2557 7.25182C20.3994 6.73342 19.4605 6.3379 18.4615 6.08894L17.7319 1.91998H14.2119L13.5335 6.07486C12.5338 6.31998 11.5898 6.71038 10.7309 7.22622L7.30561 4.77886L4.81665 7.26654L7.22625 10.7123C6.70529 11.5744 6.30913 12.5171 6.05761 13.5232L1.92065 14.2118V17.7318L6.05313 18.4646C6.30273 19.4681 6.69889 20.4109 7.22177 21.2749L4.77953 24.6905L7.26721 27.1808L10.7175 24.7641C11.5789 25.2813 12.5203 25.6749 13.52 25.9213L14.2119 30.08H17.7319L18.4717 25.9117C19.4663 25.6595 20.4058 25.2633 21.2589 24.7443L24.7328 27.1821L27.2211 24.6918L24.7411 21.2486C25.2544 20.3942 25.6442 19.4605 25.8899 18.4685L30.0794 17.7331Z" stroke="white" stroke-width="1.5" stroke-miterlimit="10" stroke-linecap="round" stroke-linejoin="round"/>
<path d="M16 20.48C18.4742 20.48 20.48 18.4743 20.48 16C20.48 13.5258 18.4742 11.52 16 11.52C13.5258 11.52 11.52 13.5258 11.52 16C11.52 18.4743 13.5258 20.48 16 20.48Z" stroke="white" stroke-width="1.5" stroke-miterlimit="10" stroke-linecap="round" stroke-linejoin="round"/>
</svg>
